{
	"asset":{
		"generator":"Khronos glTF Blender I/O v4.3.47",
		"version":"2.0"
	},
	"extensionsUsed":[
		"KHR_materials_clearcoat",
		"KHR_materials_transmission",
		"KHR_materials_specular",
		"KHR_materials_anisotropy",
		"KHR_materials_ior",
		"KHR_materials_sheen"
	],
	"scene":0,
	"scenes":[
		{
			"name":"Scene",
			"nodes":[
				6
			]
		}
	],
	"nodes":[
		{
			"mesh":0,
			"name":"\u041a\u0443\u0431.001"
		},
		{
			"mesh":1,
			"name":"\u041a\u0443\u0431.002"
		},
		{
			"mesh":2,
			"name":"\u041e\u043a\u0440\u0443\u0436\u043d\u043e\u0441\u0442\u044c"
		},
		{
			"mesh":3,
			"name":"\u041e\u043a\u0440\u0443\u0436\u043d\u043e\u0441\u0442\u044c.001"
		},
		{
			"mesh":4,
			"name":"\u041e\u043a\u0440\u0443\u0436\u043d\u043e\u0441\u0442\u044c.002"
		},
		{
			"mesh":5,
			"name":"\u041e\u043a\u0440\u0443\u0436\u043d\u043e\u0441\u0442\u044c.003"
		},
		{
			"children":[
				0,
				1,
				2,
				3,
				4,
				5
			],
			"mesh":6,
			"name":"Samsung phone"
		}
	],
	"materials":[
		{
			"doubleSided":true,
			"extensions":{
				"KHR_materials_clearcoat":{
					"clearcoatFactor":0.75,
					"clearcoatRoughnessFactor":0.009999999776482582
				},
				"KHR_materials_specular":{
					"specularFactor":0.20000000298023224
				},
				"KHR_materials_ior":{
					"ior":1.4500000476837158
				}
			},
			"name":"2023 BMW Jet Black",
			"pbrMetallicRoughness":{
				"roughnessFactor":0.10000000149011612
			}
		},
		{
			"doubleSided":true,
			"name":"\u041c\u0430\u0442\u0435\u0440\u0438\u0430\u043b.001",
			"pbrMetallicRoughness":{
				"baseColorTexture":{
					"index":0
				},
				"metallicFactor":0,
				"roughnessFactor":0.5
			}
		},
		{
			"doubleSided":true,
			"name":"\u041c\u0430\u0442\u0435\u0440\u0438\u0430\u043b.002",
			"pbrMetallicRoughness":{
				"baseColorTexture":{
					"index":1
				},
				"metallicFactor":0,
				"roughnessFactor":0.5
			}
		},
		{
			"doubleSided":true,
			"name":"Milk White Glass With Glossy Finish"
		},
		{
			"doubleSided":true,
			"extensions":{
				"KHR_materials_clearcoat":{
					"clearcoatFactor":0.25
				}
			},
			"name":"Car Paint",
			"pbrMetallicRoughness":{
				"baseColorFactor":[
					0.0100255711004138,
					0.0100255711004138,
					0.0100255711004138,
					1
				]
			}
		},
		{
			"doubleSided":true,
			"extensions":{
				"KHR_materials_transmission":{
					"transmissionFactor":1
				}
			},
			"name":"Glass dark",
			"pbrMetallicRoughness":{
				"baseColorFactor":[
					0.10566236078739166,
					0.10566236078739166,
					0.10566236078739166,
					1
				],
				"metallicFactor":0,
				"roughnessFactor":0
			}
		},
		{
			"alphaMode":"BLEND",
			"doubleSided":true,
			"extensions":{
				"KHR_materials_clearcoat":{
					"clearcoatRoughnessFactor":0
				},
				"KHR_materials_specular":{
					"specularFactor":0.9818181991577148
				},
				"KHR_materials_sheen":{
					"sheenColorFactor":[
						1.0,
						1.0,
						1.0
					],
					"sheenRoughnessFactor":0.5
				},
				"KHR_materials_anisotropy":{
					"anisotropyStrength":1,
					"anisotropyRotation":1.65647604472763
				},
				"KHR_materials_ior":{
					"ior":1.4500000476837158
				}
			},
			"name":"Metal Mesh",
			"normalTexture":{
				"index":2,
				"texCoord":1
			}
		}
	],
	"meshes":[
		{
			"name":"\u041a\u0443\u0431.001",
			"primitives":[
				{
					"attributes":{
						"POSITION":0,
						"NORMAL":1,
						"TEXCOORD_0":2,
						"TEXCOORD_1":3
					},
					"indices":4,
					"material":0
				}
			]
		},
		{
			"name":"\u041a\u0443\u0431.002",
			"primitives":[
				{
					"attributes":{
						"POSITION":5,
						"NORMAL":6,
						"TEXCOORD_0":7
					},
					"indices":8,
					"material":0
				}
			]
		},
		{
			"name":"\u041e\u043a\u0440\u0443\u0436\u043d\u043e\u0441\u0442\u044c",
			"primitives":[
				{
					"attributes":{
						"POSITION":9,
						"NORMAL":10,
						"TEXCOORD_0":11
					},
					"indices":12,
					"material":1
				}
			]
		},
		{
			"name":"\u041e\u043a\u0440\u0443\u0436\u043d\u043e\u0441\u0442\u044c.004",
			"primitives":[
				{
					"attributes":{
						"POSITION":13,
						"NORMAL":14,
						"TEXCOORD_0":15
					},
					"indices":16,
					"material":2
				}
			]
		},
		{
			"name":"\u041e\u043a\u0440\u0443\u0436\u043d\u043e\u0441\u0442\u044c.005",
			"primitives":[
				{
					"attributes":{
						"POSITION":17,
						"NORMAL":18,
						"TEXCOORD_0":19,
						"TEXCOORD_1":20
					},
					"indices":21,
					"material":3
				}
			]
		},
		{
			"name":"\u041e\u043a\u0440\u0443\u0436\u043d\u043e\u0441\u0442\u044c.006",
			"primitives":[
				{
					"attributes":{
						"POSITION":22,
						"NORMAL":23,
						"TEXCOORD_0":24
					},
					"indices":25,
					"material":2
				}
			]
		},
		{
			"name":"\u041a\u0443\u0431",
			"primitives":[
				{
					"attributes":{
						"POSITION":26,
						"NORMAL":27,
						"TEXCOORD_0":28,
						"TEXCOORD_1":29
					},
					"indices":30,
					"material":4
				},
				{
					"attributes":{
						"POSITION":31,
						"NORMAL":32,
						"TEXCOORD_0":33,
						"TEXCOORD_1":34
					},
					"indices":35,
					"material":5
				},
				{
					"attributes":{
						"POSITION":36,
						"NORMAL":37,
						"TEXCOORD_0":38,
						"TEXCOORD_1":39
					},
					"indices":40,
					"material":6
				},
				{
					"attributes":{
						"POSITION":41,
						"NORMAL":42,
						"TEXCOORD_0":43,
						"TEXCOORD_1":44
					},
					"indices":45,
					"material":6
				}
			]
		}
	],
	"textures":[
		{
			"sampler":0,
			"source":0
		},
		{
			"sampler":0,
			"source":0
		},
		{
			"sampler":0,
			"source":1
		}
	],
	"images":[
		{
			"mimeType":"image/png",
			"name":"\u043a\u0430\u043c\u0435\u0440\u0430",
			"uri":"%D0%BA%D0%B0%D0%BC%D0%B5%D1%80%D0%B0.png"
		},
		{
			"mimeType":"image/jpeg",
			"name":"white-canvas-texture-seamless-square-high-quality-background-tile-ready-160969944",
			"uri":"white-canvas-texture-seamless-square-high-quality-background-tile-ready-160969944.jpg"
		}
	],
	"accessors":[
		{
			"bufferView":0,
			"componentType":5126,
			"count":464,
			"max":[
				0.030864417552947998,
				0.0015984538476914167,
				-0.03777652978897095
			],
			"min":[
				0.011045631021261215,
				0.00014142412692308426,
				-0.0725029930472374
			],
			"type":"VEC3"
		},
		{
			"bufferView":1,
			"componentType":5126,
			"count":464,
			"type":"VEC3"
		},
		{
			"bufferView":2,
			"componentType":5126,
			"count":464,
			"type":"VEC2"
		},
		{
			"bufferView":3,
			"componentType":5126,
			"count":464,
			"type":"VEC2"
		},
		{
			"bufferView":4,
			"componentType":5123,
			"count":1824,
			"type":"SCALAR"
		},
		{
			"bufferView":5,
			"componentType":5126,
			"count":264,
			"max":[
				0.0050161429680883884,
				0.001458530779927969,
				-0.024971678853034973
			],
			"min":[
				-0.0048755742609500885,
				9.80030745267868e-06,
				-0.04100219905376434
			],
			"type":"VEC3"
		},
		{
			"bufferView":6,
			"componentType":5126,
			"count":264,
			"type":"VEC3"
		},
		{
			"bufferView":7,
			"componentType":5126,
			"count":264,
			"type":"VEC2"
		},
		{
			"bufferView":8,
			"componentType":5123,
			"count":1044,
			"type":"SCALAR"
		},
		{
			"bufferView":9,
			"componentType":5126,
			"count":300,
			"max":[
				0.030017118901014328,
				0.0003707024734467268,
				-0.03911881148815155
			],
			"min":[
				0.0229205172508955,
				0.0002552429214119911,
				-0.07096382230520248
			],
			"type":"VEC3"
		},
		{
			"bufferView":10,
			"componentType":5126,
			"count":300,
			"type":"VEC3"
		},
		{
			"bufferView":11,
			"componentType":5126,
			"count":300,
			"type":"VEC2"
		},
		{
			"bufferView":12,
			"componentType":5123,
			"count":1764,
			"type":"SCALAR"
		},
		{
			"bufferView":13,
			"componentType":5126,
			"count":300,
			"max":[
				0.019899457693099976,
				0.0003515153657644987,
				-0.06341695040464401
			],
			"min":[
				0.01288870070129633,
				0.00028582382947206497,
				-0.07099967449903488
			],
			"type":"VEC3"
		},
		{
			"bufferView":14,
			"componentType":5126,
			"count":300,
			"type":"VEC3"
		},
		{
			"bufferView":15,
			"componentType":5126,
			"count":300,
			"type":"VEC2"
		},
		{
			"bufferView":16,
			"componentType":5123,
			"count":588,
			"type":"SCALAR"
		},
		{
			"bufferView":17,
			"componentType":5126,
			"count":100,
			"max":[
				0.018382931128144264,
				0.0003960083704441786,
				-0.040662869811058044
			],
			"min":[
				0.014233307912945747,
				0.0003571240231394768,
				-0.04515105485916138
			],
			"type":"VEC3"
		},
		{
			"bufferView":18,
			"componentType":5126,
			"count":100,
			"type":"VEC3"
		},
		{
			"bufferView":19,
			"componentType":5126,
			"count":100,
			"type":"VEC2"
		},
		{
			"bufferView":20,
			"componentType":5126,
			"count":100,
			"type":"VEC2"
		},
		{
			"bufferView":21,
			"componentType":5123,
			"count":588,
			"type":"SCALAR"
		},
		{
			"bufferView":22,
			"componentType":5126,
			"count":300,
			"max":[
				0.0022417886648327112,
				0.009036647155880928,
				-0.07256657630205154
			],
			"min":[
				-0.001558175659738481,
				0.008966119959950447,
				-0.07667658478021622
			],
			"type":"VEC3"
		},
		{
			"bufferView":23,
			"componentType":5126,
			"count":300,
			"type":"VEC3"
		},
		{
			"bufferView":24,
			"componentType":5126,
			"count":300,
			"type":"VEC2"
		},
		{
			"bufferView":25,
			"componentType":5123,
			"count":588,
			"type":"SCALAR"
		},
		{
			"bufferView":26,
			"componentType":5126,
			"count":6085,
			"max":[
				0.03809405863285065,
				0.009241916239261627,
				0.07903978228569031
			],
			"min":[
				-0.037005942314863205,
				0.0003419099375605583,
				-0.08016020804643631
			],
			"type":"VEC3"
		},
		{
			"bufferView":27,
			"componentType":5126,
			"count":6085,
			"type":"VEC3"
		},
		{
			"bufferView":28,
			"componentType":5126,
			"count":6085,
			"type":"VEC2"
		},
		{
			"bufferView":29,
			"componentType":5126,
			"count":6085,
			"type":"VEC2"
		},
		{
			"bufferView":30,
			"componentType":5123,
			"count":25638,
			"type":"SCALAR"
		},
		{
			"bufferView":31,
			"componentType":5126,
			"count":163,
			"max":[
				0.03651437163352966,
				0.009241916239261627,
				0.07796692103147507
			],
			"min":[
				-0.036157477647066116,
				0.008873427286744118,
				-0.07909079641103745
			],
			"type":"VEC3"
		},
		{
			"bufferView":32,
			"componentType":5126,
			"count":163,
			"type":"VEC3"
		},
		{
			"bufferView":33,
			"componentType":5126,
			"count":163,
			"type":"VEC2"
		},
		{
			"bufferView":34,
			"componentType":5126,
			"count":163,
			"type":"VEC2"
		},
		{
			"bufferView":35,
			"componentType":5123,
			"count":426,
			"type":"SCALAR"
		},
		{
			"bufferView":36,
			"componentType":5126,
			"count":26,
			"max":[
				0.0037992848083376884,
				0.00867878645658493,
				-0.07783087342977524
			],
			"min":[
				-0.0031707827001810074,
				0.008659806102514267,
				-0.07873212546110153
			],
			"type":"VEC3"
		},
		{
			"bufferView":37,
			"componentType":5126,
			"count":26,
			"type":"VEC3"
		},
		{
			"bufferView":38,
			"componentType":5126,
			"count":26,
			"type":"VEC2"
		},
		{
			"bufferView":39,
			"componentType":5126,
			"count":26,
			"type":"VEC2"
		},
		{
			"bufferView":40,
			"componentType":5123,
			"count":72,
			"type":"SCALAR"
		},
		{
			"bufferView":41,
			"componentType":5126,
			"count":334,
			"max":[
				-0.0166914165019989,
				0.00808151625096798,
				0.07892812788486481
			],
			"min":[
				-0.0366925410926342,
				0.0032232641242444515,
				-0.035029057413339615
			],
			"type":"VEC3"
		},
		{
			"bufferView":42,
			"componentType":5126,
			"count":334,
			"type":"VEC3"
		},
		{
			"bufferView":43,
			"componentType":5126,
			"count":334,
			"type":"VEC2"
		},
		{
			"bufferView":44,
			"componentType":5126,
			"count":334,
			"type":"VEC2"
		},
		{
			"bufferView":45,
			"componentType":5123,
			"count":606,
			"type":"SCALAR"
		}
	],
	"bufferViews":[
		{
			"buffer":0,
			"byteLength":5568,
			"byteOffset":0,
			"target":34962
		},
		{
			"buffer":0,
			"byteLength":5568,
			"byteOffset":5568,
			"target":34962
		},
		{
			"buffer":0,
			"byteLength":3712,
			"byteOffset":11136,
			"target":34962
		},
		{
			"buffer":0,
			"byteLength":3712,
			"byteOffset":14848,
			"target":34962
		},
		{
			"buffer":0,
			"byteLength":3648,
			"byteOffset":18560,
			"target":34963
		},
		{
			"buffer":0,
			"byteLength":3168,
			"byteOffset":22208,
			"target":34962
		},
		{
			"buffer":0,
			"byteLength":3168,
			"byteOffset":25376,
			"target":34962
		},
		{
			"buffer":0,
			"byteLength":2112,
			"byteOffset":28544,
			"target":34962
		},
		{
			"buffer":0,
			"byteLength":2088,
			"byteOffset":30656,
			"target":34963
		},
		{
			"buffer":0,
			"byteLength":3600,
			"byteOffset":32744,
			"target":34962
		},
		{
			"buffer":0,
			"byteLength":3600,
			"byteOffset":36344,
			"target":34962
		},
		{
			"buffer":0,
			"byteLength":2400,
			"byteOffset":39944,
			"target":34962
		},
		{
			"buffer":0,
			"byteLength":3528,
			"byteOffset":42344,
			"target":34963
		},
		{
			"buffer":0,
			"byteLength":3600,
			"byteOffset":45872,
			"target":34962
		},
		{
			"buffer":0,
			"byteLength":3600,
			"byteOffset":49472,
			"target":34962
		},
		{
			"buffer":0,
			"byteLength":2400,
			"byteOffset":53072,
			"target":34962
		},
		{
			"buffer":0,
			"byteLength":1176,
			"byteOffset":55472,
			"target":34963
		},
		{
			"buffer":0,
			"byteLength":1200,
			"byteOffset":56648,
			"target":34962
		},
		{
			"buffer":0,
			"byteLength":1200,
			"byteOffset":57848,
			"target":34962
		},
		{
			"buffer":0,
			"byteLength":800,
			"byteOffset":59048,
			"target":34962
		},
		{
			"buffer":0,
			"byteLength":800,
			"byteOffset":59848,
			"target":34962
		},
		{
			"buffer":0,
			"byteLength":1176,
			"byteOffset":60648,
			"target":34963
		},
		{
			"buffer":0,
			"byteLength":3600,
			"byteOffset":61824,
			"target":34962
		},
		{
			"buffer":0,
			"byteLength":3600,
			"byteOffset":65424,
			"target":34962
		},
		{
			"buffer":0,
			"byteLength":2400,
			"byteOffset":69024,
			"target":34962
		},
		{
			"buffer":0,
			"byteLength":1176,
			"byteOffset":71424,
			"target":34963
		},
		{
			"buffer":0,
			"byteLength":73020,
			"byteOffset":72600,
			"target":34962
		},
		{
			"buffer":0,
			"byteLength":73020,
			"byteOffset":145620,
			"target":34962
		},
		{
			"buffer":0,
			"byteLength":48680,
			"byteOffset":218640,
			"target":34962
		},
		{
			"buffer":0,
			"byteLength":48680,
			"byteOffset":267320,
			"target":34962
		},
		{
			"buffer":0,
			"byteLength":51276,
			"byteOffset":316000,
			"target":34963
		},
		{
			"buffer":0,
			"byteLength":1956,
			"byteOffset":367276,
			"target":34962
		},
		{
			"buffer":0,
			"byteLength":1956,
			"byteOffset":369232,
			"target":34962
		},
		{
			"buffer":0,
			"byteLength":1304,
			"byteOffset":371188,
			"target":34962
		},
		{
			"buffer":0,
			"byteLength":1304,
			"byteOffset":372492,
			"target":34962
		},
		{
			"buffer":0,
			"byteLength":852,
			"byteOffset":373796,
			"target":34963
		},
		{
			"buffer":0,
			"byteLength":312,
			"byteOffset":374648,
			"target":34962
		},
		{
			"buffer":0,
			"byteLength":312,
			"byteOffset":374960,
			"target":34962
		},
		{
			"buffer":0,
			"byteLength":208,
			"byteOffset":375272,
			"target":34962
		},
		{
			"buffer":0,
			"byteLength":208,
			"byteOffset":375480,
			"target":34962
		},
		{
			"buffer":0,
			"byteLength":144,
			"byteOffset":375688,
			"target":34963
		},
		{
			"buffer":0,
			"byteLength":4008,
			"byteOffset":375832,
			"target":34962
		},
		{
			"buffer":0,
			"byteLength":4008,
			"byteOffset":379840,
			"target":34962
		},
		{
			"buffer":0,
			"byteLength":2672,
			"byteOffset":383848,
			"target":34962
		},
		{
			"buffer":0,
			"byteLength":2672,
			"byteOffset":386520,
			"target":34962
		},
		{
			"buffer":0,
			"byteLength":1212,
			"byteOffset":389192,
			"target":34963
		}
	],
	"samplers":[
		{
			"magFilter":9729,
			"minFilter":9987
		}
	],
	"buffers":[
		{
			"byteLength":390404,
			"uri":"phone.bin"
		}
	]
}
